<svg xmlns="http://www.w3.org/2000/svg" viewBox="0 0 144 144">
  <g fill="none" fill-rule="evenodd" stroke="#54565B" stroke-linecap="round" stroke-linejoin="round" transform="translate(1 1)">
    <polyline points="13.104 142.682 13.104 0 142.567 0"/>
    <polyline points=".229 142.682 .229 12.996 13.105 12.996"/>
    <path d="M63 12.9112712L63 85.9112712M26 48.9112712L100 48.9112712M51.5623929 49.4126435C51.5623929 43.1757286 56.6290119 38.1206223 62.880131 38.1206223 69.1337024 38.1206223 74.197869 43.1757286 74.197869 49.4126435 74.197869 55.6495584 69.1337024 60.7046648 62.880131 60.7046648 56.6290119 60.7046648 51.5623929 55.6495584 51.5623929 49.4126435z"/>
    <path d="M38.1532643,49.4126435 C38.1532643,35.7863669 49.2233119,24.7414733 62.8806214,24.7414733 C76.537931,24.7414733 87.610431,35.7863669 87.610431,49.4126435 C87.610431,63.0389201 76.537931,74.0838137 62.8806214,74.0838137 C49.2233119,74.0838137 38.1532643,63.0389201 38.1532643,49.4126435 Z"/>
    <polyline points="26.095 125.454 43.482 125.454 50.42 102.987 61.412 137.818 71.233 117.729 76.55 125.454 82.948 116.895 89.344 125.454 126.822 125.454"/>
  </g>
</svg>
