<svg xmlns="http://www.w3.org/2000/svg" viewBox="0 0 144 144"><defs><style>.cls-1{fill:none;stroke:#595959;}</style></defs><title>collaboration-icon</title><g id="Layer_2" data-name="Layer 2"><path class="cls-1" d="M82,8.34c-2.57,13,.49,22.74,2.73,29.87,1.12,3.59,2.09,6.68,2.09,9.25,0,4.75.27,15.07.29,15.61V73.54a2.91,2.91,0,0,1-5.82,0V57H78.16V78.49s-.86,3.24-2.9,3.59c-1.58.27-2.91-1.3-2.91-2.9V57H69.24V82.75a2.91,2.91,0,0,1-5.81,0V57H60.32V78a2.91,2.91,0,0,1-5.81,0V49.64a1.56,1.56,0,0,0-2.91-.78L45.69,59.12a2.73,2.73,0,0,1-3.51.49c-1.47-1.2-1.66-2.69-.56-4.43L58.06,29.09a1.59,1.59,0,0,0,.24-.67c0-.45,1.18-11.25-1-20.15m61.43,125.41c-4.76-7.81-13.2-14.64-13.56-14.93a1.47,1.47,0,0,0-.63-.3l-30.09-6.83c-2-.45-2.92-1.64-2.72-3.52A2.7,2.7,0,0,1,74.63,106L86,109a1.55,1.55,0,0,0,1.5-2.6L66.33,85.65c3.38-.33,2.91-2.9,3-5.23.69.42,5.08,4.69,5.08,4.69l12,12,2.2-2.2L75.89,82c1.81-1,2.22-3.13,2.27-5.34L92.73,90.8l2.2-2.2L82.61,76.37c2.34,0,4.1-.41,4.48-2.83L99,84.49l2.2-2.2-11-11c-3.34-3.33,0-5.18,0-5.18s2.55-.49,3.46.42l7.4,7.41c.37.39,7.48,7.88,10.84,11.23,1.81,1.82,3.32,4.69,5.06,8,3.46,6.63,8.2,15.7,19.2,23m-131,0c11-7.35,15.74-16.42,19.2-23,1.74-3.33,3.25-6.2,5.06-8C32.8,81.78,39.91,74.29,40.28,73.9l7.4-7.41a3,3,0,0,1,3.72-.25,3.06,3.06,0,0,1,0,4.76L40.1,82.29l2.2,2.2,12.1-12.1.11,4.23a3.81,3.81,0,0,0,1,3.35L46.41,88.6l2.2,2.2,10.2-10.26c.55.17,4-4.22,4.62-4.22,0,0,.16,5.81,0,6.75,0,.14,0-.14,0,0a10.11,10.11,0,0,1-2,3.13l-8.71,8.71,2.2,2.2,11-11.46a16.23,16.23,0,0,1,1.93,1.49l2.63,2.58L53.82,106.43a1.55,1.55,0,0,0,1.1,2.65,1.37,1.37,0,0,0,.4,0s8.1-2.09,11.44-3.07,4.56,4.64.09,5.66l-30.08,6.83a1.47,1.47,0,0,0-.63.3c-.36.29-8.8,7.12-13.57,14.93"/></g></svg>