<svg xmlns="http://www.w3.org/2000/svg" viewBox="0 0 144 144"><defs><style>.cls-1{fill:none;stroke:#595959;stroke-miterlimit:10;}.cls-2{fill:#595959;}</style></defs><title>competitive-benefits-icon</title><g id="Layer_2" data-name="Layer 2"><path class="cls-1" d="M140.2,107.6a2.17,2.17,0,0,1-2.18,2.18H5.74a2.17,2.17,0,0,1-2.19-2.18V61.08A2.17,2.17,0,0,1,5.74,58.9H43.53A1.91,1.91,0,0,0,45.47,57V28.61a2.17,2.17,0,0,1,2.18-2.18H98.29a2.17,2.17,0,0,1,2.18,2.18V70.53a1.91,1.91,0,0,0,1.94,1.94h35.85a2.17,2.17,0,0,1,2.19,2.18V107.6Z"/><path class="cls-2" d="M66.45,50.92h5.17V32.63c0-.37,0-.75,0-1.15l-5,4.41a.54.54,0,0,1-.38.15.47.47,0,0,1-.41-.2l-.47-.63L72,29.45h1.17V50.92h4.92v1.16H66.45Z"/><path class="cls-2" d="M24.34,71.19a8,8,0,0,1,2.46.38,5.82,5.82,0,0,1,2.06,1.13,5.3,5.3,0,0,1,1.42,1.89,6.33,6.33,0,0,1,.52,2.67,7.17,7.17,0,0,1-.38,2.36,10.35,10.35,0,0,1-1.06,2.1,15.5,15.5,0,0,1-1.56,2c-.59.63-1.2,1.27-1.85,1.93l-7.06,7.2A9,9,0,0,1,20,92.61a10.32,10.32,0,0,1,1.11-.06h9.73a.58.58,0,0,1,.41.15.53.53,0,0,1,.15.39V94H16.81v-.54a.8.8,0,0,1,.09-.36,1.2,1.2,0,0,1,.21-.31L24.8,85c.64-.65,1.23-1.27,1.77-1.88A14.47,14.47,0,0,0,28,81.27a9,9,0,0,0,.94-1.89,6.16,6.16,0,0,0,.34-2.07,5.3,5.3,0,0,0-.41-2.16,4.39,4.39,0,0,0-1.11-1.51,4.56,4.56,0,0,0-1.59-.87,6.23,6.23,0,0,0-1.89-.29,5.7,5.7,0,0,0-2,.33,5.19,5.19,0,0,0-1.59.91,4.92,4.92,0,0,0-1.14,1.38,5.29,5.29,0,0,0-.63,1.76c-.11.37-.32.56-.64.56h-.16l-.76-.13a7.58,7.58,0,0,1,.78-2.57,6.53,6.53,0,0,1,1.51-1.92,6.35,6.35,0,0,1,2.1-1.18A8,8,0,0,1,24.34,71.19Z"/><path class="cls-2" d="M120.8,79.89a8.14,8.14,0,0,1,2.44.36,5.72,5.72,0,0,1,2,1.07,5.06,5.06,0,0,1,1.38,1.78,5.71,5.71,0,0,1,.51,2.47,5.65,5.65,0,0,1-.34,2,5.4,5.4,0,0,1-.94,1.55,5.53,5.53,0,0,1-1.41,1.12,7.24,7.24,0,0,1-1.77.69,6.3,6.3,0,0,1,3.75,1.92,5.36,5.36,0,0,1,1.27,3.64,6,6,0,0,1-.56,2.57,6.3,6.3,0,0,1-1.53,2,7.13,7.13,0,0,1-2.29,1.34,8.12,8.12,0,0,1-2.87.49,8.56,8.56,0,0,1-3.21-.52,6.08,6.08,0,0,1-2.11-1.35,6.3,6.3,0,0,1-1.29-1.85,16.93,16.93,0,0,1-.75-2l.61-.25a1,1,0,0,1,.37-.08.76.76,0,0,1,.33.08.47.47,0,0,1,.24.3l.11.32.27.71a6.15,6.15,0,0,0,.46.87,5.08,5.08,0,0,0,.69.91,4.13,4.13,0,0,0,1,.81,5.62,5.62,0,0,0,1.4.59,7.41,7.41,0,0,0,1.86.22,6.06,6.06,0,0,0,2.5-.48,5.6,5.6,0,0,0,1.8-1.22,4.8,4.8,0,0,0,1.09-1.65,4.85,4.85,0,0,0,.35-1.78,5.55,5.55,0,0,0-.32-1.93,3.64,3.64,0,0,0-1.09-1.53,5.55,5.55,0,0,0-2-1,10.83,10.83,0,0,0-3.08-.38V90.56a9.72,9.72,0,0,0,2.58-.39,5.65,5.65,0,0,0,1.86-1,4.18,4.18,0,0,0,1.14-1.48,4.74,4.74,0,0,0,.38-1.9,5.09,5.09,0,0,0-.4-2.07,4.15,4.15,0,0,0-1.07-1.45,4.2,4.2,0,0,0-1.56-.84,6.34,6.34,0,0,0-1.86-.27,5.6,5.6,0,0,0-2,.32,5.09,5.09,0,0,0-1.58.89,5,5,0,0,0-1.14,1.38,6.29,6.29,0,0,0-.69,1.79c-.08.37-.28.55-.59.55h-.17l-.78-.13a8,8,0,0,1,.79-2.58,6.62,6.62,0,0,1,1.5-1.91,6.4,6.4,0,0,1,2.1-1.19A8,8,0,0,1,120.8,79.89Z"/></g></svg>