<svg xmlns="http://www.w3.org/2000/svg" viewBox="0 0 144 85.91"><defs><style>.cls-1{fill:none;stroke:#595959;stroke-miterlimit:10;}</style></defs><title>corrosion-monitoring-icon</title><g id="corrosion-monitoring-icon" data-name="Layer 2"><polygon class="cls-1" points="15.7 39.45 15.7 72.97 39.47 72.97 47.24 64.72 43.74 54.51 60.26 59.27 60.26 51.21 76.19 55.58 92.61 47.93 97.47 56.21 105.25 59.76 99.22 64.81 102.33 72.97 129.1 72.97 129.1 39.45 15.7 39.45"/><polyline class="cls-1" points="15.7 39.45 15.7 34.52 3.7 34.52 3.7 79.68 15.7 79.68 15.7 72.97"/><polygon class="cls-1" points="141.1 39.45 141.1 34.52 129.1 34.52 129.1 79.68 141.1 79.68 141.1 72.97 141.1 39.45"/><line class="cls-1" x1="56.95" y1="58.32" x2="42.3" y2="72.97"/><line class="cls-1" x1="70.12" y1="53.92" x2="51.96" y2="72.97"/><line class="cls-1" x1="81.04" y1="53.63" x2="61.71" y2="72.97"/><line class="cls-1" x1="93.88" y1="50.49" x2="71.41" y2="72.97"/><line class="cls-1" x1="97.67" y1="56.4" x2="81.11" y2="72.97"/><line class="cls-1" x1="99.22" y1="64.81" x2="90.84" y2="72.97"/><line class="cls-1" x1="39.46" y1="72.97" x2="102.33" y2="72.97"/><polygon class="cls-1" points="95.03 39.06 48.99 39.06 51.99 24.1 92.03 24.1 95.03 39.06"/><rect class="cls-1" x="52.16" y="7" width="39.96" height="7.08"/><rect class="cls-1" x="66.65" y="14.08" width="10.51" height="10.02"/></g></svg>