<svg xmlns="http://www.w3.org/2000/svg" viewBox="0 0 144 144"><defs><style>.cls-1,.cls-2,.cls-3,.cls-4{fill:none;stroke:#595959;}.cls-1{stroke-dasharray:7;}.cls-3{stroke-miterlimit:10;}.cls-4{stroke-linecap:round;stroke-linejoin:bevel;}</style></defs><title>flexible-hours-icon</title><g id="Layer_2" data-name="Layer 2"><path class="cls-1" d="M71.47,135.38A59.06,59.06,0,1,0,12.41,76.32,59.06,59.06,0,0,0,71.47,135.38Z"/><path class="cls-2" d="M71.47,17.27a59.06,59.06,0,1,0,59.06,59.05"/><line class="cls-3" x1="71.47" y1="33.19" x2="71.47" y2="41.13"/><line class="cls-3" x1="93.04" y1="38.97" x2="91.48" y2="41.66"/><line class="cls-3" x1="108.82" y1="54.76" x2="106.13" y2="56.31"/><line class="cls-3" x1="114.61" y1="76.32" x2="106.66" y2="76.32"/><line class="cls-3" x1="108.83" y1="97.89" x2="106.14" y2="96.34"/><line class="cls-3" x1="93.04" y1="113.68" x2="91.49" y2="110.99"/><line class="cls-3" x1="71.47" y1="119.46" x2="71.47" y2="111.51"/><line class="cls-3" x1="49.91" y1="113.68" x2="51.46" y2="110.99"/><line class="cls-3" x1="34.12" y1="97.89" x2="36.81" y2="96.34"/><line class="cls-3" x1="28.34" y1="76.33" x2="36.28" y2="76.33"/><line class="cls-3" x1="34.12" y1="54.76" x2="36.8" y2="56.31"/><line class="cls-3" x1="49.9" y1="38.97" x2="51.45" y2="41.66"/><path class="cls-4" d="M69.35,74.43a2.84,2.84,0,1,0,4-.23A2.85,2.85,0,0,0,69.35,74.43Z"/><line class="cls-3" x1="93.16" y1="52.07" x2="73.36" y2="74.2"/><line class="cls-3" x1="50.74" y1="57.77" x2="70.24" y2="75.21"/><polyline class="cls-2" points="64.4 7.47 73.38 16.45 64.4 25.43"/></g></svg>