<svg xmlns="http://www.w3.org/2000/svg" viewBox="0 0 144 144"><defs><style>.cls-1{fill:none;stroke:#595959;stroke-linecap:round;stroke-linejoin:round;}</style></defs><title>games_room_icon</title><g id="Layer_2" data-name="Layer 2"><rect class="cls-1" x="39.89" y="65.89" width="4.9" height="9.9" rx="1.64" transform="translate(-37.69 50.69) rotate(-45)"/><line class="cls-1" x1="46.41" y1="74.34" x2="89.85" y2="117.78"/><rect class="cls-1" x="106.27" y="111.93" width="4.9" height="9.9" rx="1.64" transform="translate(-50.8 111.11) rotate(-45)"/><line class="cls-1" x1="61.58" y1="69.74" x2="104.93" y2="113.09"/><rect class="cls-1" x="85.92" y="132.27" width="4.9" height="9.9" rx="1.64" transform="translate(-71.14 102.68) rotate(-45)"/><line class="cls-1" x1="41.24" y1="90.08" x2="84.59" y2="133.43"/><rect class="cls-1" x="60.23" y="45.55" width="4.9" height="9.9" rx="1.64" transform="translate(-17.35 59.11) rotate(-45)"/><line class="cls-1" x1="66.47" y1="54.28" x2="109.91" y2="97.72"/><rect class="cls-1" x="126.61" y="91.58" width="4.9" height="9.9" rx="1.64" transform="translate(-30.46 119.53) rotate(-45)"/><line class="cls-1" x1="81.92" y1="49.4" x2="125.27" y2="92.75"/><rect class="cls-1" x="80.57" y="25.21" width="4.9" height="9.9" rx="1.64" transform="translate(2.99 67.54) rotate(-45)"/><line class="cls-1" x1="86.71" y1="34.04" x2="130.15" y2="77.48"/><circle class="cls-1" cx="85.61" cy="83.77" r="12.29"/><rect class="cls-1" x="37.54" y="56.45" width="96.13" height="54.65" rx="6" transform="translate(-34.16 85.07) rotate(-45)"/><rect class="cls-1" x="49.07" y="94.96" width="17.43" height="33.28" transform="translate(-61.99 73.55) rotate(-45)"/><rect class="cls-1" x="49.58" y="100.52" width="12.23" height="25.34" transform="translate(-63.72 72.53) rotate(-45)"/><rect class="cls-1" x="104.72" y="39.32" width="17.43" height="33.28" transform="translate(233.22 15.31) rotate(135)"/><rect class="cls-1" x="109.42" y="41.71" width="12.23" height="25.34" transform="translate(235.68 11.13) rotate(135)"/><path class="cls-1" d="M15.7,27.86A7.45,7.45,0,0,1,9.26,16.68a7.36,7.36,0,0,1,4.52-3.46l8.87-2.38,8.69-2.32a7.44,7.44,0,1,1,1.92,14.64A7.5,7.5,0,0,1,27,19.81l-3.89,1a7.48,7.48,0,0,1-7.45,7Z"/><path class="cls-1" d="M32.82,14a1.06,1.06,0,0,1-1-.79,1,1,0,0,1,.1-.81,1.09,1.09,0,0,1,.65-.5,1.27,1.27,0,0,1,.28,0,1,1,0,0,1,1,.79,1.06,1.06,0,0,1-.75,1.3A1.26,1.26,0,0,1,32.82,14Z"/><path class="cls-1" d="M36.28,16a1.06,1.06,0,0,1-.92-1.6,1.06,1.06,0,0,1,.65-.5l.27,0a1.06,1.06,0,0,1,.28,2.09A1.35,1.35,0,0,1,36.28,16Z"/><path class="cls-1" d="M34.28,19.43A1.06,1.06,0,0,1,34,17.34a.9.9,0,0,1,.28,0,1.06,1.06,0,0,1,.92,1.59,1,1,0,0,1-.64.5A1,1,0,0,1,34.28,19.43Z"/><path class="cls-1" d="M30.81,17.43a1.06,1.06,0,0,1-1-.79,1,1,0,0,1,.75-1.3.84.84,0,0,1,.27,0,1.07,1.07,0,0,1,.93,1.6,1.07,1.07,0,0,1-.65.49A.86.86,0,0,1,30.81,17.43Z"/><path class="cls-1" d="M14.74,23.84a.43.43,0,0,1-.22-.06.4.4,0,0,1-.2-.27l-.39-1.43-1.43.38a.43.43,0,0,1-.54-.3l-.5-1.88a.43.43,0,0,1,.31-.53l1.43-.39-.38-1.43a.44.44,0,0,1,.31-.54l1.87-.5a.44.44,0,0,1,.54.31l.38,1.44,1.44-.39a.44.44,0,0,1,.53.31l.5,1.87a.42.42,0,0,1,0,.33.44.44,0,0,1-.27.21l-1.43.38L17,22.78a.4.4,0,0,1,0,.34.43.43,0,0,1-.26.2l-1.88.5Z"/><path class="cls-1" d="M12.73,13.39a.4.4,0,0,1-.22-.06.44.44,0,0,1-.21-.27l-.68-2.54a.44.44,0,0,1,.31-.53l2.92-.79a.43.43,0,0,1,.33.05.41.41,0,0,1,.2.26l.68,2.55a.42.42,0,0,1-.31.53l-2.91.78Z"/><path class="cls-1" d="M28.28,9.22a.43.43,0,0,1-.42-.32l-.69-2.55a.43.43,0,0,1,0-.33.41.41,0,0,1,.26-.2L30.4,5a.44.44,0,0,1,.53.31l.68,2.54a.44.44,0,0,1-.3.54l-2.92.78Z"/><path class="cls-1" d="M20.07,5.47l1.05,5.78,2-.54-2-5.53Z"/><path class="cls-1" d="M51.91,45.53h0a7.48,7.48,0,0,1-7.44-7l-3.89-1.05a7.42,7.42,0,0,1-8.16,3.1,7.44,7.44,0,0,1-5.26-9.12,7.46,7.46,0,0,1,9.12-5.27c5.71,1.53,11.84,3.18,17.56,4.7a7.45,7.45,0,0,1-1.93,14.65Z"/><path class="cls-1" d="M34.8,31.63h0a1.24,1.24,0,0,1-.27,0,1.06,1.06,0,0,1,.27-2.09,1.33,1.33,0,0,1,.28,0,1.07,1.07,0,0,1,.64.5,1,1,0,0,1,.11.81A1.06,1.06,0,0,1,34.8,31.63Z"/><path class="cls-1" d="M31.34,33.63h0a1.27,1.27,0,0,1-.28,0,1.08,1.08,0,0,1-.65-.5,1,1,0,0,1-.1-.81,1.07,1.07,0,0,1,1-.79,1.26,1.26,0,0,1,.27,0,1,1,0,0,1,.65.5,1.08,1.08,0,0,1,.11.81A1.07,1.07,0,0,1,31.34,33.63Z"/><path class="cls-1" d="M33.34,37.1h0a.86.86,0,0,1-.28,0A1.06,1.06,0,0,1,33.34,35a1.24,1.24,0,0,1,.27,0,1.06,1.06,0,0,1,.65.5,1.06,1.06,0,0,1-.92,1.6Z"/><path class="cls-1" d="M36.8,35.1h0a.84.84,0,0,1-.27,0,1,1,0,0,1-.65-.49,1.1,1.1,0,0,1-.11-.81,1.07,1.07,0,0,1,1-.79.9.9,0,0,1,.28,0,1.06,1.06,0,0,1,.75,1.3A1.07,1.07,0,0,1,36.8,35.1Z"/><path class="cls-1" d="M52.88,41.51l-.11,0L50.89,41a.41.41,0,0,1-.26-.2.43.43,0,0,1-.05-.33L51,39l-1.44-.38a.41.41,0,0,1-.26-.2.45.45,0,0,1-.05-.34l.51-1.87a.44.44,0,0,1,.53-.31l1.44.38.38-1.43a.45.45,0,0,1,.2-.27.47.47,0,0,1,.33,0l1.88.5a.51.51,0,0,1,.27.21.47.47,0,0,1,0,.33L54.41,37l1.44.39a.41.41,0,0,1,.26.2.43.43,0,0,1,0,.33l-.51,1.88a.4.4,0,0,1-.2.26.43.43,0,0,1-.33,0l-1.43-.39-.39,1.43A.44.44,0,0,1,52.88,41.51Z"/><path class="cls-1" d="M54.89,31.06l-.11,0-2.92-.78a.43.43,0,0,1-.26-.2.43.43,0,0,1-.05-.33l.69-2.55a.42.42,0,0,1,.53-.3l2.92.77a.45.45,0,0,1,.26.21.43.43,0,0,1,0,.33l-.69,2.54A.44.44,0,0,1,54.89,31.06Z"/><path class="cls-1" d="M39.34,26.89h-.11l-2.92-.78a.45.45,0,0,1-.31-.54L36.68,23a.47.47,0,0,1,.21-.27.42.42,0,0,1,.33,0l2.91.78a.43.43,0,0,1,.31.54l-.68,2.54a.45.45,0,0,1-.2.27A.54.54,0,0,1,39.34,26.89Z"/><path class="cls-1" d="M44.49,28.38l2,.54,1.06-5.78-1.08-.29Z"/></g></svg>