<svg xmlns="http://www.w3.org/2000/svg" viewBox="0 0 144 85.91"><defs><style>.cls-1,.cls-2,.cls-3{fill:none;stroke:#595959;}.cls-1{stroke-miterlimit:10;}.cls-2{stroke-linecap:round;}.cls-2,.cls-3{stroke-linejoin:round;}</style></defs><title>leak-verification-icon</title><g id="leak-verification-icon" data-name="Layer 2"><polygon class="cls-1" points="30.13 11.75 30.13 45.27 44.08 45.27 52.09 31.28 65.65 35.8 67.11 28.9 98 20.93 82.84 35.36 88.09 45.27 113.61 45.27 113.61 11.75 30.13 11.75"/><rect class="cls-1" x="129.62" y="11.75" width="11.53" height="33.52"/><rect class="cls-1" x="3.12" y="11.75" width="11" height="33.52"/><polyline class="cls-1" points="14.12 45.27 14.12 50.97 22.13 50.97 22.13 45.27"/><polyline class="cls-1" points="22.13 11.75 22.13 6.83 14.12 6.83 14.12 11.75"/><polyline class="cls-1" points="22.13 45.27 22.13 50.97 30.13 50.97 30.13 45.27"/><polyline class="cls-1" points="30.13 11.75 30.13 6.83 22.13 6.83 22.13 11.75"/><line class="cls-1" x1="22.13" y1="11.75" x2="22.13" y2="45.27"/><line class="cls-1" x1="30.13" y1="45.27" x2="30.13" y2="11.75"/><polyline class="cls-1" points="121.61 11.75 121.61 6.83 113.61 6.83 113.61 11.75"/><polyline class="cls-1" points="113.61 45.27 113.61 50.97 121.61 50.97 121.61 45.27"/><line class="cls-1" x1="121.61" y1="45.27" x2="121.61" y2="11.75"/><polyline class="cls-1" points="121.61 45.27 121.61 50.97 129.62 50.97 129.62 45.27"/><polyline class="cls-1" points="129.62 11.75 129.62 6.83 121.61 6.83 121.61 11.75"/><path class="cls-2" d="M65.53,68.39c0-11,9.88-12.19,11.19-22.83,1.75,10.57,11.2,11.88,11.2,22.83a11.2,11.2,0,1,1-22.39,0Z"/><path class="cls-3" d="M55.37,54.34c0-5.85,5.25-6.47,6-12.12.93,5.61,5.94,6.3,5.94,12.12a5.95,5.95,0,0,1-11.89,0Z"/></g></svg>