<svg id="Layer_1" data-name="Layer 1" xmlns="http://www.w3.org/2000/svg" viewBox="0 0 144 144"><defs><style>.cls-1{fill:none;stroke:#54565B;stroke-miterlimit:10;}</style></defs><title>maintaining-icon</title><path class="cls-1" d="M39.61,51.84a1.86,1.86,0,0,0-1.79-.45c-.23,0-13.46,5.84-22-2.47A23.53,23.53,0,0,1,9.32,29.18l1.57-1.57L20.32,37c0-.22.22,0,.45,0l11,2.69a1.38,1.38,0,0,0,1.57-.45l7.18-6.73A1.49,1.49,0,0,0,41,31L38,21.1c0-.22-.22-.45-.45-.67l-9.87-9.88,2.92-2.91c2.47-.23,12.79-.45,20,6.5C58.46,22,53.3,37.48,53.3,37.48a1.74,1.74,0,0,0,.45,1.79l21.32,21.1-2,2-11.9-11.9c-3.36-3.36-7.85-3.81-10.32-1.34a5.33,5.33,0,0,0-1.34,5.16,10.42,10.42,0,0,0,2.69,5.16L64.07,71.36,61.83,73.6ZM66.32,69.12,54.42,57.23a7.11,7.11,0,0,1-1.79-3.37c0-.45-.23-1.57.45-2.24,1.12-1.13,3.81-.45,5.61,1.34L70.58,64.85Zm-5.39,27.6L24.81,132.84a4.54,4.54,0,0,1-6.29,0l-9-9a4.09,4.09,0,0,1-1.35-3.15,4.43,4.43,0,0,1,1.35-3.14L45.67,81.46a4.34,4.34,0,0,1,6.29,0l9,9a4.34,4.34,0,0,1,0,6.29Zm72.47,22c2,2,2.7,7.19-1.57,11.45s-9.87,3.81-11.89,2L68.78,81,71,78.77l35.67,35.67a9.58,9.58,0,0,0,6.29,2.92,5.39,5.39,0,0,0,4-1.57c2.47-2.47,2-7-1.34-10.32L80,69.79l2-2ZM77.76,72l35.67,35.68a7,7,0,0,1,1.8,3.37c0,.44.22,1.57-.45,2.24-1.12,1.12-3.81.45-5.61-1.35L73.5,76.3ZM124,22.45a1.38,1.38,0,0,0-1.57.45l-.45.44L57.82,87.18l-2.47-2.47,63.92-63.83.45-.45a1.76,1.76,0,0,0,.45-1.8s-.9-3.81,6.5-11.22a6,6,0,0,1,1.57,1.35l5.61,5.61a16,16,0,0,1,1.35,1.57C128,23.12,124,22.45,124,22.45Z"/></svg>