<svg id="Layer_1" data-name="Layer 1" xmlns="http://www.w3.org/2000/svg" viewBox="0 0 22.05 57.95"><defs><style>.cls-1{fill:#ffffff;}</style></defs><title>mouse_scroll_icon</title><path class="cls-1" d="M12,0H10A10.41,10.41,0,0,0,0,10.54V23.78A10.41,10.41,0,0,0,10.26,34.31H11.8A10.4,10.4,0,0,0,22.05,23.78V10.54A10.41,10.41,0,0,0,12,0Zm8.07,23.77a8.4,8.4,0,0,1-8.28,8.5H10.25A8.4,8.4,0,0,1,2,23.78V10.54A8.41,8.41,0,0,1,10,2V6.16h2V2a8.41,8.41,0,0,1,8.07,8.5ZM11,7.68a1.78,1.78,0,0,0-1.75,1.8v4.24a1.75,1.75,0,1,0,3.49,0V9.48A1.77,1.77,0,0,0,11,7.68Zm3.74,43.58-2.56,2.63V47.2a.94.94,0,0,0-1-1,1.08,1.08,0,0,0-1,1v6.64L7.67,51.05a1.18,1.18,0,0,0-.79-.2,3.17,3.17,0,0,0-1,.41,1,1,0,0,0,0,1.42L11,58l.78-.8a1,1,0,0,0,.23-.23l4.13-4.24a1,1,0,0,0,0-1.42A.94.94,0,0,0,14.77,51.26ZM11.22,44.1a1,1,0,1,0-1-1A1,1,0,0,0,11.22,44.1Zm0-3a1,1,0,0,0,0-2,1,1,0,0,0,0,2Zm0-3a1,1,0,1,0-1-1A1,1,0,0,0,11.22,38.07Z"/></svg>