<svg xmlns="http://www.w3.org/2000/svg" viewBox="0 0 144 144"><defs><style>.cls-1,.cls-2{fill:none;stroke:#54565B;stroke-miterlimit:10;}.cls-2{stroke-linecap:round;}</style></defs><title>ongoing-monitoring-icon</title><g id="Layer_2" data-name="Layer 2"><path class="cls-1" d="M131.29,9.91h-118a8.43,8.43,0,0,0-8.48,7.71c-.26,2.85,0,5.81,0,8.67v76.19a8.49,8.49,0,0,0,8.25,8.7c.54,0,1.08,0,1.62,0h42.7l-1.42,6.11-2.53,1A25.23,25.23,0,0,0,49.25,120a4.36,4.36,0,0,0-2.32,3.62v2.49c0,3.37,2.73,5.47,6,5.47H89.48c2.55,0,5.15.23,7.26-1.53,1.93-1.61,1.64-4,1.64-6.25,0-2.88-2.66-4.2-5-5l-.19-.06-4.79-1.56c-.47-2-.93-4-1.4-6h44a8.42,8.42,0,0,0,8.37-6.6,9.92,9.92,0,0,0,.2-1.8V18.55A8.45,8.45,0,0,0,131.29,9.91Z"/><path class="cls-1" d="M133.64,87.53h-123V18.31a3.5,3.5,0,0,1,.47-1.54,2.58,2.58,0,0,1,1.16-.87c-.34.17.28,0,.46-.09H131a2.42,2.42,0,0,1,2.62,2.59Z"/><path class="cls-1" d="M67.94,102.13h9.43c3.81,0,3.81-5.9,0-5.9H67.94C64.13,96.23,64.13,102.13,67.94,102.13Z"/><path class="cls-1" d="M65,70.44h-.12a7.46,7.46,0,0,0-.87-2.1l.09-.08A2.18,2.18,0,1,0,61,65.17l-.1.12a9.2,9.2,0,0,0-2.09-.89s0-.09,0-.13a2.18,2.18,0,0,0-4.36,0v0a8.08,8.08,0,0,0-2.13.92l0-.06a2.18,2.18,0,0,0-3.08,3.09l.14.13a9.12,9.12,0,0,0-.85,2.06h-.2a2.18,2.18,0,1,0,0,4.35h.25a8.82,8.82,0,0,0,.88,2l-.22.19a2.18,2.18,0,1,0,3.08,3.08,2.32,2.32,0,0,0,.21-.25,9.06,9.06,0,0,0,2,.83,1.66,1.66,0,0,0,0,.32,2.18,2.18,0,0,0,4.36,0,2.11,2.11,0,0,0,0-.25,7.86,7.86,0,0,0,2-.85l.18.2A2.18,2.18,0,1,0,64.07,77a1.43,1.43,0,0,0-.23-.2,9.11,9.11,0,0,0,.87-2H65a2.18,2.18,0,1,0,0-4.35Z"/><path class="cls-1" d="M56.63,76.53a4,4,0,1,1,4-4A4,4,0,0,1,56.63,76.53Z"/><line class="cls-2" x1="17.01" y1="46.66" x2="17.01" y2="75.24"/><line class="cls-2" x1="27.57" y1="51.67" x2="27.57" y2="75.24"/><line class="cls-2" x1="13.26" y1="80" x2="42.13" y2="80"/><line class="cls-2" x1="38.14" y1="55.29" x2="38.14" y2="75.24"/><rect class="cls-1" x="17.01" y="21.7" width="25.77" height="19.66"/><rect class="cls-1" x="47.77" y="21.7" width="14.72" height="9.83"/><rect class="cls-1" x="66.23" y="21.7" width="24.56" height="9.83"/><rect class="cls-1" x="72.65" y="60.35" width="22.42" height="10.39"/><rect class="cls-1" x="47.77" y="35.31" width="43.03" height="14.27"/><path class="cls-1" d="M126.08,82.86H99.72a.36.36,0,0,1-.37-.36v-20a1.32,1.32,0,0,1,1.32-1.32h6.14a.3.3,0,0,1,.22.09l2,1.82H122.9a3.55,3.55,0,0,1,3.54,3.54v16C126.44,82.73,126.26,82.86,126.08,82.86Z"/><path class="cls-1" d="M100.28,45.21a2.57,2.57,0,1,1,2.57-2.57A2.6,2.6,0,0,1,100.28,45.21Z"/><path class="cls-1" d="M112.81,40.07a2.57,2.57,0,1,1,2.57-2.57A2.57,2.57,0,0,1,112.81,40.07Z"/><path class="cls-1" d="M124.73,35.26a2.58,2.58,0,1,1,2.58-2.57A2.57,2.57,0,0,1,124.73,35.26Z"/><path class="cls-1" d="M99,44.88s-1.8,3-2.19,3.45"/><path class="cls-1" d="M102,40.69c1.75-1.37,3.36-1.88,6.15-2.59l.77-.22c.49-.11.76-.22,1.37-.38"/><path class="cls-1" d="M115.18,36.52c.61-.11.69-.17,1.07-.22A11.11,11.11,0,0,0,122.52,34"/><path class="cls-1" d="M126.28,30.46a12.29,12.29,0,0,1,1.79-1.71"/></g></svg>