<svg xmlns="http://www.w3.org/2000/svg" viewBox="0 0 144 144"><defs><style>.cls-1{fill:none;stroke:#595959;stroke-linecap:round;stroke-linejoin:round;}</style></defs><title>own-operate-icon</title><g id="Layer_2" data-name="Layer 2"><path class="cls-1" d="M38.49,76.74h.37l0-.69h4.18l7.45-.86,0,1.42H51l0-1.49,16.64-2v-.16s.94-8-4.18-8l-11.7-1.06-.34-.22V61.56a20.62,20.62,0,0,1,5.11-.33,31.6,31.6,0,0,1-5.32-.5v-.17h-1v.15a26.15,26.15,0,0,1-5.36.42s3.29.13,5.29.36l-.08,1.83-.21.31L43.42,63s-1.49,0-2,0c0,0-.47-.12-.36-.55,0,0,0-5-.87-7.22a2,2,0,0,0-1.71-1h.18a2,2,0,0,0-1.71,1c-.84,2.19-.86,7.22-.86,7.22a.47.47,0,0,1-.36.55c-.51,0-2,0-2,0l-6.48.66-.21-.31L27,61.49c2-.23,5.29-.36,5.29-.36a26,26,0,0,1-5.35-.42v-.15H26v.17a31.78,31.78,0,0,1-5.33.5,20.68,20.68,0,0,1,5.12.33v2.11l-.34.22L13.7,65c-5.11,0-4.18,8-4.18,8v.16l16.64,2,.05,1.49h.45l0-1.42,7.45.86h4.18l.05.69h.36"/><line class="cls-1" x1="13.57" y1="73.38" x2="13.57" y2="64.95"/><line class="cls-1" x1="63.56" y1="73.38" x2="63.56" y2="64.95"/><line class="cls-1" x1="24.81" y1="74.96" x2="24.81" y2="63.94"/><line class="cls-1" x1="34.03" y1="76.05" x2="34.03" y2="62.98"/><line class="cls-1" x1="43.17" y1="76.05" x2="43.17" y2="62.98"/><line class="cls-1" x1="52.36" y1="74.96" x2="52.36" y2="63.94"/><path class="cls-1" d="M32.71,64.65a45.42,45.42,0,0,0,5.51-.44H39a34.86,34.86,0,0,0,5.39.44,50.31,50.31,0,0,0-5.23.37h-.92A40,40,0,0,0,32.71,64.65Z"/><path class="cls-1" d="M38.26,76.05a63,63,0,0,0-.59-6.53s-.07-.69-.09-1.46a7.38,7.38,0,0,1,.09-1.7s-.33-1.06.11-1.34h1.66s.23.81,0,1.17l.1,1s-.4.09-.42.67V70s0,.16.23.34a52.9,52.9,0,0,0-.44,5.69Z"/><line class="cls-1" x1="37.58" y1="68.06" x2="39.12" y2="68.06"/><line class="cls-1" x1="37.58" y1="66.38" x2="39.12" y2="66.38"/><line class="cls-1" x1="37.58" y1="65.89" x2="39.12" y2="65.89"/><line class="cls-1" x1="38.54" y1="68.06" x2="38.54" y2="76.05"/><path class="cls-1" d="M37,76.05a11.09,11.09,0,0,0-.23-2.62,50,50,0,0,1-.22-7.05A8.52,8.52,0,0,0,35.74,63"/><path class="cls-1" d="M40.16,76.05a11.77,11.77,0,0,1,.23-2.62,49.46,49.46,0,0,0,.23-7.05A8.52,8.52,0,0,1,41.4,63"/><path class="cls-1" d="M37.23,76.05s-.27-3.86.59-5.67"/><path class="cls-1" d="M39.85,76.05s.45-3.4-.53-5.44"/><path class="cls-1" d="M105.38,76.74h.36l.05-.69H110l7.44-.86,0,1.42h.45l0-1.49,16.64-2v-.16s.93-8-4.18-8l-11.71-1.06-.34-.22V61.56a20.68,20.68,0,0,1,5.12-.33,31.6,31.6,0,0,1-5.32-.5v-.17h-.95v.15a26.15,26.15,0,0,1-5.36.42s3.28.13,5.29.36L117,63.32l-.21.31L110.3,63s-1.48,0-2,0c0,0-.47-.12-.37-.55,0,0,0-5-.86-7.22a2,2,0,0,0-1.71-1h.18a2,2,0,0,0-1.71,1c-.85,2.19-.87,7.22-.87,7.22.11.43-.36.55-.36.55-.5,0-2,0-2,0l-6.48.66-.2-.31-.09-1.83c2-.23,5.29-.36,5.29-.36a26.15,26.15,0,0,1-5.36-.42v-.15h-1v.17a31.6,31.6,0,0,1-5.32.5,20.62,20.62,0,0,1,5.11.33v2.11l-.34.22L80.59,65c-5.11,0-4.18,8-4.18,8v.16l16.64,2,0,1.49h.45l0-1.42,7.45.86h4.18l.06.69h.36"/><line class="cls-1" x1="80.45" y1="73.38" x2="80.45" y2="64.95"/><line class="cls-1" x1="130.45" y1="73.38" x2="130.45" y2="64.95"/><line class="cls-1" x1="91.7" y1="74.96" x2="91.7" y2="63.94"/><line class="cls-1" x1="100.91" y1="76.05" x2="100.91" y2="62.98"/><line class="cls-1" x1="110.06" y1="76.05" x2="110.06" y2="62.98"/><line class="cls-1" x1="119.25" y1="74.96" x2="119.25" y2="63.94"/><path class="cls-1" d="M99.6,64.65a45.28,45.28,0,0,0,5.5-.44h.76a34.91,34.91,0,0,0,5.4.44A50.31,50.31,0,0,0,106,65h-.93A39.54,39.54,0,0,0,99.6,64.65Z"/><path class="cls-1" d="M105.14,76.05a60.28,60.28,0,0,0-.59-6.53s-.06-.69-.08-1.46a8.06,8.06,0,0,1,.08-1.7s-.32-1.06.12-1.34h1.66s.23.81,0,1.17l.1,1s-.4.09-.43.67V70s0,.16.23.34a55.77,55.77,0,0,0-.44,5.69Z"/><line class="cls-1" x1="104.47" y1="68.06" x2="106" y2="68.06"/><line class="cls-1" x1="104.47" y1="66.38" x2="106" y2="66.38"/><line class="cls-1" x1="104.47" y1="65.89" x2="106" y2="65.89"/><line class="cls-1" x1="105.43" y1="68.06" x2="105.43" y2="76.05"/><path class="cls-1" d="M103.86,76.05a11.09,11.09,0,0,0-.23-2.62,50,50,0,0,1-.22-7.05,8.64,8.64,0,0,0-.79-3.39"/><path class="cls-1" d="M107.05,76.05a11.09,11.09,0,0,1,.23-2.62,50,50,0,0,0,.22-7.05,8.64,8.64,0,0,1,.79-3.39"/><path class="cls-1" d="M104.11,76.05s-.26-3.86.6-5.67"/><path class="cls-1" d="M106.74,76.05s.45-3.4-.54-5.44"/><path class="cls-1" d="M38.49,107.21h.37l0-.68h4.18l7.45-.87,0,1.42H51l0-1.49,16.64-2v-.16s.94-8-4.18-8l-11.7-1.06-.34-.22V92a20.62,20.62,0,0,1,5.11-.33,31.6,31.6,0,0,1-5.32-.5V91h-1v.15a26.15,26.15,0,0,1-5.36.42s3.29.14,5.29.36l-.08,1.83-.21.31-6.48-.65s-1.49,0-2,0c0,0-.47-.12-.36-.55,0,0,0-5-.87-7.22a2,2,0,0,0-1.71-1h.18a2,2,0,0,0-1.71,1c-.84,2.19-.86,7.22-.86,7.22a.47.47,0,0,1-.36.55c-.51,0-2,0-2,0l-6.48.65-.21-.31L27,92c2-.22,5.29-.36,5.29-.36a26,26,0,0,1-5.35-.42V91H26v.17a31.78,31.78,0,0,1-5.33.5,20.68,20.68,0,0,1,5.12.33v2.11l-.34.22L13.7,95.42c-5.11,0-4.18,8-4.18,8v.16l16.64,2,.05,1.49h.45l0-1.42,7.45.87h4.18l.05.68h.36"/><line class="cls-1" x1="13.57" y1="103.85" x2="13.57" y2="95.42"/><line class="cls-1" x1="63.56" y1="103.85" x2="63.56" y2="95.42"/><line class="cls-1" x1="24.81" y1="105.43" x2="24.81" y2="94.42"/><line class="cls-1" x1="34.03" y1="106.53" x2="34.03" y2="93.45"/><line class="cls-1" x1="43.17" y1="106.53" x2="43.17" y2="93.45"/><line class="cls-1" x1="52.36" y1="105.43" x2="52.36" y2="94.42"/><path class="cls-1" d="M32.71,95.12a45.42,45.42,0,0,0,5.51-.44H39a34.86,34.86,0,0,0,5.39.44,50.31,50.31,0,0,0-5.23.37h-.92A42.9,42.9,0,0,0,32.71,95.12Z"/><path class="cls-1" d="M38.26,106.53a63.12,63.12,0,0,0-.59-6.54s-.07-.69-.09-1.46a7.41,7.41,0,0,1,.09-1.7s-.33-1.06.11-1.34h1.66s.23.81,0,1.18l.1,1s-.4.09-.42.67v2.14s0,.16.23.35a52.65,52.65,0,0,0-.44,5.69Z"/><line class="cls-1" x1="37.58" y1="98.53" x2="39.12" y2="98.53"/><line class="cls-1" x1="37.58" y1="96.85" x2="39.12" y2="96.85"/><line class="cls-1" x1="37.58" y1="96.37" x2="39.12" y2="96.37"/><line class="cls-1" x1="38.54" y1="98.53" x2="38.54" y2="106.53"/><path class="cls-1" d="M37,106.53a11.16,11.16,0,0,0-.23-2.63,49.89,49.89,0,0,1-.22-7.05,8.52,8.52,0,0,0-.78-3.39"/><path class="cls-1" d="M40.16,106.53a11.84,11.84,0,0,1,.23-2.63,49.38,49.38,0,0,0,.23-7.05,8.52,8.52,0,0,1,.78-3.39"/><path class="cls-1" d="M37.23,106.53s-.27-3.87.59-5.68"/><path class="cls-1" d="M39.85,106.53s.45-3.41-.53-5.45"/><path class="cls-1" d="M105.38,107.21h.36l.05-.68H110l7.44-.87,0,1.42h.45l0-1.49,16.64-2v-.16s.93-8-4.18-8l-11.71-1.06-.34-.22V92a20.68,20.68,0,0,1,5.12-.33,31.6,31.6,0,0,1-5.32-.5V91h-.95v.15a26.15,26.15,0,0,1-5.36.42s3.28.14,5.29.36L117,93.79l-.21.31-6.48-.65s-1.48,0-2,0c0,0-.47-.12-.37-.55,0,0,0-5-.86-7.22a2,2,0,0,0-1.71-1h.18a2,2,0,0,0-1.71,1c-.85,2.19-.87,7.22-.87,7.22.11.43-.36.55-.36.55-.5,0-2,0-2,0l-6.48.65-.2-.31L93.86,92c2-.22,5.29-.36,5.29-.36a26.15,26.15,0,0,1-5.36-.42V91h-1v.17a31.6,31.6,0,0,1-5.32.5,20.62,20.62,0,0,1,5.11.33v2.11l-.34.22-11.7,1.06c-5.11,0-4.18,8-4.18,8v.16l16.64,2,0,1.49h.45l0-1.42,7.45.87h4.18l.06.68h.36"/><line class="cls-1" x1="80.45" y1="103.85" x2="80.45" y2="95.42"/><line class="cls-1" x1="130.45" y1="103.85" x2="130.45" y2="95.42"/><line class="cls-1" x1="91.7" y1="105.43" x2="91.7" y2="94.42"/><line class="cls-1" x1="100.91" y1="106.53" x2="100.91" y2="93.45"/><line class="cls-1" x1="110.06" y1="106.53" x2="110.06" y2="93.45"/><line class="cls-1" x1="119.25" y1="105.43" x2="119.25" y2="94.42"/><path class="cls-1" d="M99.6,95.12a45.28,45.28,0,0,0,5.5-.44h.76a34.91,34.91,0,0,0,5.4.44,50.31,50.31,0,0,0-5.23.37h-.93A42.44,42.44,0,0,0,99.6,95.12Z"/><path class="cls-1" d="M105.14,106.53a60.42,60.42,0,0,0-.59-6.54s-.06-.69-.08-1.46a8.09,8.09,0,0,1,.08-1.7s-.32-1.06.12-1.34h1.66s.23.81,0,1.18l.1,1s-.4.09-.43.67v2.14s0,.16.23.35a55.49,55.49,0,0,0-.44,5.69Z"/><line class="cls-1" x1="104.47" y1="98.53" x2="106" y2="98.53"/><line class="cls-1" x1="104.47" y1="96.85" x2="106" y2="96.85"/><line class="cls-1" x1="104.47" y1="96.37" x2="106" y2="96.37"/><line class="cls-1" x1="105.43" y1="98.53" x2="105.43" y2="106.53"/><path class="cls-1" d="M103.86,106.53a11.16,11.16,0,0,0-.23-2.63,49.89,49.89,0,0,1-.22-7.05,8.64,8.64,0,0,0-.79-3.39"/><path class="cls-1" d="M107.05,106.53a11.16,11.16,0,0,1,.23-2.63,49.89,49.89,0,0,0,.22-7.05,8.64,8.64,0,0,1,.79-3.39"/><path class="cls-1" d="M104.11,106.53s-.26-3.87.6-5.68"/><path class="cls-1" d="M106.74,106.53s.45-3.41-.54-5.45"/><path class="cls-1" d="M38.49,137.68h.37l0-.68h4.18l7.45-.87,0,1.42H51l0-1.49,16.64-2v-.17s.94-8-4.18-8l-11.7-1.06-.34-.22V122.5a20.62,20.62,0,0,1,5.11-.33,31.6,31.6,0,0,1-5.32-.5v-.17h-1v.15a25.27,25.27,0,0,1-5.36.42s3.29.14,5.29.36l-.08,1.83-.21.31-6.48-.65s-1.49,0-2,0c0,0-.47-.12-.36-.55,0,0,0-5-.87-7.22a2,2,0,0,0-1.71-1h.18a2,2,0,0,0-1.71,1c-.84,2.19-.86,7.22-.86,7.22a.47.47,0,0,1-.36.55c-.51,0-2,0-2,0l-6.48.65-.21-.31L27,122.43c2-.22,5.29-.36,5.29-.36a25.11,25.11,0,0,1-5.35-.42v-.15H26v.17a31.78,31.78,0,0,1-5.33.5,20.68,20.68,0,0,1,5.12.33v2.11l-.34.22L13.7,125.89c-5.11,0-4.18,8-4.18,8V134l16.64,2,.05,1.49h.45l0-1.42,7.45.87h4.18l.05.68h.36"/><line class="cls-1" x1="13.57" y1="134.32" x2="13.57" y2="125.89"/><line class="cls-1" x1="63.56" y1="134.32" x2="63.56" y2="125.89"/><line class="cls-1" x1="24.81" y1="135.9" x2="24.81" y2="124.89"/><line class="cls-1" x1="34.03" y1="137" x2="34.03" y2="123.92"/><line class="cls-1" x1="43.17" y1="137" x2="43.17" y2="123.92"/><line class="cls-1" x1="52.36" y1="135.9" x2="52.36" y2="124.89"/><path class="cls-1" d="M32.71,125.59a45,45,0,0,0,5.51-.43H39a35.48,35.48,0,0,0,5.39.43,50.31,50.31,0,0,0-5.23.37h-.92A42.9,42.9,0,0,0,32.71,125.59Z"/><path class="cls-1" d="M38.26,137a63.36,63.36,0,0,0-.59-6.54s-.07-.68-.09-1.46a7.41,7.41,0,0,1,.09-1.7s-.33-1.06.11-1.34h1.66s.23.81,0,1.18l.1,1s-.4.09-.42.67V131s0,.16.23.35a52.65,52.65,0,0,0-.44,5.69Z"/><line class="cls-1" x1="37.58" y1="129" x2="39.12" y2="129"/><line class="cls-1" x1="37.58" y1="127.32" x2="39.12" y2="127.32"/><line class="cls-1" x1="37.58" y1="126.84" x2="39.12" y2="126.84"/><line class="cls-1" x1="38.54" y1="129" x2="38.54" y2="137"/><path class="cls-1" d="M37,137a11.16,11.16,0,0,0-.23-2.63,49.89,49.89,0,0,1-.22-7.05,8.52,8.52,0,0,0-.78-3.39"/><path class="cls-1" d="M40.16,137a11.84,11.84,0,0,1,.23-2.63,49.38,49.38,0,0,0,.23-7.05,8.52,8.52,0,0,1,.78-3.39"/><path class="cls-1" d="M37.23,137s-.27-3.87.59-5.68"/><path class="cls-1" d="M39.85,137s.45-3.41-.53-5.45"/><path class="cls-1" d="M105.38,137.68h.36l.05-.68H110l7.44-.87,0,1.42h.45l0-1.49,16.64-2v-.17s.93-8-4.18-8l-11.71-1.06-.34-.22V122.5a20.68,20.68,0,0,1,5.12-.33,31.6,31.6,0,0,1-5.32-.5v-.17h-.95v.15a25.27,25.27,0,0,1-5.36.42s3.28.14,5.29.36l-.09,1.83-.21.31-6.48-.65s-1.48,0-2,0c0,0-.47-.12-.37-.55,0,0,0-5-.86-7.22a2,2,0,0,0-1.71-1h.18a2,2,0,0,0-1.71,1c-.85,2.19-.87,7.22-.87,7.22.11.43-.36.55-.36.55-.5,0-2,0-2,0l-6.48.65-.2-.31-.09-1.83c2-.22,5.29-.36,5.29-.36a25.27,25.27,0,0,1-5.36-.42v-.15h-1v.17a31.6,31.6,0,0,1-5.32.5,20.62,20.62,0,0,1,5.11.33v2.11l-.34.22-11.7,1.06c-5.11,0-4.18,8-4.18,8V134l16.64,2,0,1.49h.45l0-1.42L101,137h4.18l.06.68h.36"/><line class="cls-1" x1="80.45" y1="134.32" x2="80.45" y2="125.89"/><line class="cls-1" x1="130.45" y1="134.32" x2="130.45" y2="125.89"/><line class="cls-1" x1="91.7" y1="135.9" x2="91.7" y2="124.89"/><line class="cls-1" x1="100.91" y1="137" x2="100.91" y2="123.92"/><line class="cls-1" x1="110.06" y1="137" x2="110.06" y2="123.92"/><line class="cls-1" x1="119.25" y1="135.9" x2="119.25" y2="124.89"/><path class="cls-1" d="M99.6,125.59a44.89,44.89,0,0,0,5.5-.43h.76a35.53,35.53,0,0,0,5.4.43A50.31,50.31,0,0,0,106,126h-.93A42.44,42.44,0,0,0,99.6,125.59Z"/><path class="cls-1" d="M105.14,137a60.64,60.64,0,0,0-.59-6.54s-.06-.68-.08-1.46a8.09,8.09,0,0,1,.08-1.7s-.32-1.06.12-1.34h1.66s.23.81,0,1.18l.1,1s-.4.09-.43.67V131s0,.16.23.35a55.49,55.49,0,0,0-.44,5.69Z"/><line class="cls-1" x1="104.47" y1="129" x2="106" y2="129"/><line class="cls-1" x1="104.47" y1="127.32" x2="106" y2="127.32"/><line class="cls-1" x1="104.47" y1="126.84" x2="106" y2="126.84"/><line class="cls-1" x1="105.43" y1="129" x2="105.43" y2="137"/><path class="cls-1" d="M103.86,137a11.16,11.16,0,0,0-.23-2.63,49.89,49.89,0,0,1-.22-7.05,8.64,8.64,0,0,0-.79-3.39"/><path class="cls-1" d="M107.05,137a11.16,11.16,0,0,1,.23-2.63,49.89,49.89,0,0,0,.22-7.05,8.64,8.64,0,0,1,.79-3.39"/><path class="cls-1" d="M104.11,137s-.26-3.87.6-5.68"/><path class="cls-1" d="M106.74,137s.45-3.41-.54-5.45"/><path class="cls-1" d="M71.16,47.6h.65l.09-1.21h7.45l13.27-1.54-.06,2.52h.8l.1-2.65,29.65-3.63V40.8s1.67-14.29-7.45-14.21L94.8,24.71l-.6-.4V20.55s1.94-.62,9.11-.59c0,0-6.8-.12-9.48-.89v-.31h-1.7V19a45.79,45.79,0,0,1-9.54.74s5.85.25,9.42.65l-.15,3.26-.37.55L79.94,23.07s-2.65.07-3.54,0c0,0-.84-.21-.65-1,0,0,0-9-1.54-12.87a3.63,3.63,0,0,0-3-1.71h.32a3.63,3.63,0,0,0-3,1.71c-1.51,3.91-1.54,12.87-1.54,12.87.19.77-.65,1-.65,1-.89,0-3.54,0-3.54,0L51.15,24.24l-.37-.55-.15-3.26c3.57-.4,9.42-.65,9.42-.65A45.79,45.79,0,0,1,50.51,19v-.28h-1.7v.31c-2.68.77-9.48.89-9.48.89,7.17,0,9.11.59,9.11.59v3.76l-.6.4L27,26.59c-9.12-.08-7.45,14.21-7.45,14.21v.29l29.65,3.63.1,2.65h.8L50,44.85l13.28,1.54h7.45l.09,1.21h.65"/><line class="cls-1" x1="26.74" y1="41.62" x2="26.74" y2="26.59"/><line class="cls-1" x1="115.84" y1="41.62" x2="115.84" y2="26.59"/><line class="cls-1" x1="46.77" y1="44.43" x2="46.77" y2="24.8"/><line class="cls-1" x1="63.2" y1="46.39" x2="63.2" y2="23.08"/><line class="cls-1" x1="79.5" y1="46.39" x2="79.5" y2="23.08"/><line class="cls-1" x1="95.88" y1="44.43" x2="95.88" y2="24.8"/><path class="cls-1" d="M60.86,26.06s8-.25,9.81-.78H72a63.75,63.75,0,0,0,9.61.78,88.34,88.34,0,0,0-9.32.66H70.67S69.48,26.39,60.86,26.06Z"/><path class="cls-1" d="M70.74,46.39S70.3,37,69.68,34.74c0,0-.11-1.23-.15-2.6a14.85,14.85,0,0,1,.15-3s-.57-1.89.21-2.38h3s.41,1.44,0,2.09L73,30.62s-.72.16-.76,1.19v3.82s0,.29.41.61a97.06,97.06,0,0,0-.78,10.15Z"/><line class="cls-1" x1="69.53" y1="32.14" x2="72.27" y2="32.14"/><line class="cls-1" x1="69.53" y1="29.14" x2="72.27" y2="29.14"/><line class="cls-1" x1="69.53" y1="28.28" x2="72.27" y2="28.28"/><line class="cls-1" x1="71.24" y1="32.14" x2="71.24" y2="46.39"/><path class="cls-1" d="M68.45,46.39A19.59,19.59,0,0,0,68,41.7s-.83-8.41-.39-12.56a15.28,15.28,0,0,0-1.41-6"/><path class="cls-1" d="M74.14,46.39a19.59,19.59,0,0,1,.41-4.69s.83-8.41.39-12.56a15.28,15.28,0,0,1,1.41-6"/><path class="cls-1" d="M68.9,46.39S68.43,39.5,70,36.27"/><path class="cls-1" d="M73.59,46.39s.79-6.07-1-9.71"/></g></svg>