<svg xmlns="http://www.w3.org/2000/svg" viewBox="0 0 144 144"><defs><style>.cls-1{fill:none;stroke:#595959;stroke-miterlimit:10;}.cls-2{fill:#595959;}</style></defs><title>paid-learning-icon</title><g id="Layer_2" data-name="Layer 2"><path class="cls-1" d="M43.7,60.68,8.3,71.57c-2.67.89-3.12,2-3.12,3.12,0,.89.45,2.22,3.12,3.11l23.14,7.12L30.33,99.17v.66c.22.89,6.68,20.48,40.72,20.48,15.58,0,25.37-4,31.38-8.68v12.68a1.76,1.76,0,0,0,1.78,1.78,1.64,1.64,0,0,0,1.78-1.78V108.73a24.42,24.42,0,0,0,6.23-9.12v-.67L111.11,82.6l23.59-4.8c2.67-.89,3.12-2,3.12-3.11-.23-.89-.67-2.23-3.34-3.12L92.66,58.7m9.55,28.89V107.4m3.56-3.78V86.48m5.34-3.88-6.9,1-28-8.46h-.44c-.22-1.56-1.78-2.67-4-2.89-2.45-.22-4.45.89-4.67,2.89-.22,1.78,1.56,3.56,4,3.78h.67A5.69,5.69,0,0,0,74,78.47c.22,0,.44-.22.67-.45.22.23.44.23.66.45l23.37,7.12L76,92.49a18.06,18.06,0,0,1-8.46,0l-36-7.57"/><polygon class="cls-1" points="46.5 31.87 66.08 21.73 102.58 21.73 84.66 31.87 74.54 31.87 74.54 58.46 56.15 58.46 56.15 31.65 46.5 31.87"/><line class="cls-1" x1="46.5" y1="37.85" x2="56.15" y2="37.85"/><line class="cls-1" x1="46.5" y1="44.26" x2="56.15" y2="44.26"/><line class="cls-1" x1="46.5" y1="50.68" x2="56.15" y2="50.68"/><line class="cls-1" x1="46.5" y1="57.09" x2="56.15" y2="57.09"/><polyline class="cls-1" points="74.54 37.85 84.19 37.85 104.56 27.33"/><polyline class="cls-1" points="74.54 44.26 84.19 44.26 104.03 33.94"/><polyline class="cls-1" points="74.54 50.68 84.19 50.68 104.36 40.25"/><polyline class="cls-1" points="74.54 57.09 84.19 57.09 104.36 46.33"/><path class="cls-2" d="M64.66,52.33a6.67,6.67,0,0,1-2.75-.68,7.43,7.43,0,0,1-2.06-1.59l.34-.48a.4.4,0,0,1,.34-.19.52.52,0,0,1,.28.14l.4.34c.15.13.34.28.55.44a6.47,6.47,0,0,0,.75.46,5.63,5.63,0,0,0,2.2.57l.39-7.84c-.56-.17-1.1-.37-1.63-.58a5.67,5.67,0,0,1-1.42-.82,3.76,3.76,0,0,1-1-1.23A3.93,3.93,0,0,1,60.67,39,4.24,4.24,0,0,1,61,37.38,4.14,4.14,0,0,1,61.93,36a4.72,4.72,0,0,1,1.53-1,5.68,5.68,0,0,1,2.09-.42l.11-2.07a.53.53,0,0,1,.1-.29.35.35,0,0,1,.27-.11h.44l-.13,2.48a5.83,5.83,0,0,1,2.18.55,6.54,6.54,0,0,1,1.71,1.24l-.27.42a.36.36,0,0,1-.32.21.68.68,0,0,1-.39-.21,7.74,7.74,0,0,0-.63-.45,6.15,6.15,0,0,0-1-.47,4.72,4.72,0,0,0-1.37-.29l-.36,7.05,1.16.38c.39.13.77.28,1.13.44a8,8,0,0,1,1,.57,3.8,3.8,0,0,1,.79.76,3.2,3.2,0,0,1,.53,1,4,4,0,0,1,.19,1.3,5.54,5.54,0,0,1-.35,2,4.9,4.9,0,0,1-1,1.64,5.17,5.17,0,0,1-1.65,1.14,6.46,6.46,0,0,1-2.24.5l-.14,2.6a.52.52,0,0,1-.1.27.33.33,0,0,1-.25.11h-.45Zm-2.9-13.4a2.87,2.87,0,0,0,.27,1.3,3,3,0,0,0,.74.93,5.31,5.31,0,0,0,1.08.67c.41.18.84.35,1.3.51l.35-6.8a4.62,4.62,0,0,0-1.63.34,3.64,3.64,0,0,0-1.17.76,3,3,0,0,0-.7,1A3.3,3.3,0,0,0,61.76,38.93Zm7.85,8.3a2.93,2.93,0,0,0-.3-1.38,3.05,3.05,0,0,0-.83-1,5,5,0,0,0-1.19-.66c-.45-.17-.92-.34-1.41-.5l-.38,7.61a5.17,5.17,0,0,0,1.75-.4,4,4,0,0,0,1.3-.89,3.63,3.63,0,0,0,.79-1.27A4.39,4.39,0,0,0,69.61,47.23Z"/></g></svg>