<svg xmlns="http://www.w3.org/2000/svg" viewBox="0 0 144 85.91"><defs><style>.cls-1{fill:none;stroke:#595959;stroke-linecap:round;stroke-miterlimit:10;}</style></defs><title>right-of-way-icon</title><g id="right-of-way-icon" data-name="Layer 2"><polyline class="cls-1" points="84.41 20.13 77.12 13.75 70.2 19.58 64.47 15.27 58.5 20.13"/><polyline class="cls-1" points="2.85 24.63 22.88 7.18 30.47 14.01 41.25 3.84 62.65 24.63 26.83 80.44"/><line class="cls-1" x1="10.33" y1="24.63" x2="26.2" y2="10.17"/><line class="cls-1" x1="18.81" y1="24.63" x2="33.65" y2="11.11"/><line class="cls-1" x1="27.3" y1="24.63" x2="45.36" y2="8.18"/><line class="cls-1" x1="35.78" y1="24.63" x2="49.65" y2="12"/><line class="cls-1" x1="44.27" y1="24.63" x2="53.75" y2="15.99"/><line class="cls-1" x1="52.75" y1="25.59" x2="58.19" y2="20.63"/><polyline class="cls-1" points="140.42 24.63 120.38 7.18 112.8 14.01 102.02 3.84 80.62 24.63 116.28 80.44"/><line class="cls-1" x1="132.94" y1="24.63" x2="117.06" y2="10.17"/><line class="cls-1" x1="124.46" y1="24.63" x2="109.61" y2="11.11"/><line class="cls-1" x1="115.97" y1="24.63" x2="97.91" y2="8.18"/><line class="cls-1" x1="107.49" y1="24.63" x2="93.62" y2="12"/><line class="cls-1" x1="99" y1="24.63" x2="89.51" y2="15.99"/><line class="cls-1" x1="90.52" y1="25.59" x2="85.08" y2="20.63"/><polygon class="cls-1" points="66.5 45.73 71.96 38.14 77.22 45.73 74.39 45.73 77.22 67.18 84.71 67.18 72.06 83.91 59.31 67.48 66.5 67.28 69.23 45.73 66.5 45.73"/><path class="cls-1" d="M24.77,55.94a21.63,21.63,0,0,0,6.78,0s3.64-1.62,0-5.87c0,0-4.15-1.72-6.78,1S24.77,55.94,24.77,55.94Z"/><path class="cls-1" d="M121.44,63.54s7.32.6,10.76,0c0,0,2.19-3.14-1.75-4.76a9.23,9.23,0,0,0-6.28.71C120.94,61,121.44,63.54,121.44,63.54Z"/><path class="cls-1" d="M108.18,45.75a38.9,38.9,0,0,0,7,0s1.43-2-1.15-3.1a6,6,0,0,0-4.09.46C107.85,44.11,108.18,45.75,108.18,45.75Z"/><path class="cls-1" d="M40.1,34.91a26.74,26.74,0,0,0,4.79,0,1.35,1.35,0,0,0-.78-2.12,4.07,4.07,0,0,0-2.8.32C39.87,33.79,40.1,34.91,40.1,34.91Z"/><path class="cls-1" d="M18.15,47.92a14.25,14.25,0,0,0,4.4,0s2.36-1.05,0-3.81c0,0-2.69-1.11-4.4.66A2,2,0,0,0,18.15,47.92Z"/><path class="cls-1" d="M115.29,43.86a9.61,9.61,0,0,0,3.06,0s1.64-.73,0-2.65a3,3,0,0,0-3.06.46A1.41,1.41,0,0,0,115.29,43.86Z"/><path class="cls-1" d="M115.59,34.19a8.77,8.77,0,0,0,2.71,0s1.46-.65,0-2.35a2.63,2.63,0,0,0-2.71.4A1.25,1.25,0,0,0,115.59,34.19Z"/><path class="cls-1" d="M46.73,32.88a6,6,0,0,0,1.88,0s1-.44,0-1.62a1.81,1.81,0,0,0-1.88.28A.86.86,0,0,0,46.73,32.88Z"/><path class="cls-1" d="M20.1,58A5.9,5.9,0,0,0,22,58s1-.45,0-1.62a1.8,1.8,0,0,0-1.87.28A.86.86,0,0,0,20.1,58Z"/></g></svg>