<svg xmlns="http://www.w3.org/2000/svg" xmlns:xlink="http://www.w3.org/1999/xlink" viewBox="0 0 379.44 73.82"><defs><style>.cls-1,.cls-2{fill:none;}.cls-1{clip-rule:evenodd;}.cls-3{fill:#fff;fill-rule:evenodd;}.cls-4{clip-path:url(#clip-path);}.cls-5{clip-path:url(#clip-path-2);}.cls-6{fill:url(#linear-gradient);}</style><clipPath id="clip-path"><path class="cls-1" d="M345.6,61.93a23.1,23.1,0,0,0,16.85-7.32,25.46,25.46,0,0,0,5.26-8.2,26.68,26.68,0,0,0,1.93-10.19A26.46,26.46,0,0,0,367.71,26a24.79,24.79,0,0,0-5.26-8.19,22.91,22.91,0,0,0-16.85-7.4c-.49,0-1,0-1.47.05V.69c.49,0,1,0,1.47,0,18.72,0,33.84,15.92,33.84,35.57S364.32,71.73,345.6,71.73h0c-.5,0-1,0-1.47,0V61.88c.49,0,1,0,1.47,0Zm-6.46-50.5a25.19,25.19,0,0,0-6.07,2.88,42.76,42.76,0,0,0-10.32,9.79,75.23,75.23,0,0,0-7.53,12.12,71.61,71.61,0,0,0,7.6,12.13,42.49,42.49,0,0,0,10.39,9.72,25.51,25.51,0,0,0,5.93,2.85V71C324.23,67.85,314.08,54.16,308.79,45,303.52,54.14,293.4,67.78,278.52,71V60.89a25.55,25.55,0,0,0,5.86-2.82,41.27,41.27,0,0,0,10.33-9.72,68.21,68.21,0,0,0,7.66-12.13,77.61,77.61,0,0,0-7.26-11.79,43.12,43.12,0,0,0-10.46-10,25.72,25.72,0,0,0-6.13-3V1.35c15,3.23,25,16.88,30.27,26.13,5.26-9.27,15.35-23,30.35-26.15v10.1Zm-67.21,50.5c.56,0,1.11,0,1.66-.06v9.81c-.55,0-1.1,0-1.66,0h0c-18.65,0-33.84-15.92-33.84-35.51S253.28.65,271.93.65c.56,0,1.11,0,1.66,0v9.81c-.55,0-1.1-.07-1.66-.07a22.88,22.88,0,0,0-16.79,7.4A24.79,24.79,0,0,0,249.88,26a27,27,0,0,0,0,20.38,25.46,25.46,0,0,0,5.26,8.2,23.07,23.07,0,0,0,16.79,7.32Z"/></clipPath><clipPath id="clip-path-2"><rect class="cls-2" x="238.09" y="0.65" width="141.35" height="71.07"/></clipPath><linearGradient id="linear-gradient" x1="275.39" y1="93.49" x2="341.58" y2="-21.16" gradientUnits="userSpaceOnUse"><stop offset="0" stop-color="#fff"/><stop offset="0.07" stop-color="#fff" stop-opacity="0.91"/><stop offset="0.19" stop-color="#fff" stop-opacity="0.76"/><stop offset="0.26" stop-color="#fff" stop-opacity="0.7"/><stop offset="0.36" stop-color="#fff" stop-opacity="0.86"/><stop offset="0.45" stop-color="#fff" stop-opacity="0.96"/><stop offset="0.5" stop-color="#fff"/><stop offset="0.71" stop-color="#fff"/><stop offset="0.75" stop-color="#fff"/><stop offset="1" stop-color="#fff" stop-opacity="0"/></linearGradient></defs><title>skyx-logo-white</title><g id="Layer_1" data-name="Layer 1"><path class="cls-3" d="M154,12.56,136.33,41.13V71.74h-9.94V41.13L108.57,12.56c-1.36-2.18-2.31-2.72-4.35-2.72h-3.68c-2,0-3,.41-4.35,2.58l-4.63,7.89L85.44,30.65c-2,3.54-4.08,4.63-4.08,4.63v.14s2,.54,4.08,4.49L96.05,61.13c1,2,2.59,2.31,5,2.31H103V72H97.41c-5.44,0-7.48-.68-9.79-5.3L75.37,42.22c-1.22-2.31-3.4-2.59-6.25-2.59H63V72H53.06V12.15a2.08,2.08,0,0,0-2.31-2.31H24.08c-7.48,0-12.24,4.9-12.24,10.2,0,14.15,33.87,11,33.87,34.15,0,10.75-8.43,20-22.31,20A31.69,31.69,0,0,1,0,63.72l5.85-7.08s7.21,8.44,17.69,8.44c6.66,0,12.11-3.95,12.11-10.48,0-14.69-34-12.38-34-34.29C1.63,9.7,10.88,1.4,24.22,1.4H56.73C61.22,1.4,63,3.17,63,7.8V31.06H69.8c2.58,0,4.62-.41,5.85-2.45l5.44-9.52L88.44,6.71C91.29,2.08,93.2,1.4,98,1.4h8.84c4.76,0,6.67.68,9.53,5.44l10.61,17.69c2.31,3.95,4.35,7.89,4.35,7.89h.14s1.9-3.94,4.35-7.89L146.26,6.84c2.86-4.76,4.76-5.44,9.52-5.44h4.63v8.71h-2c-2,0-3,.27-4.36,2.45Zm12-2.45V1.4c9,0,19.18,8.85,24.49,16.47,1.76,2.55,3.63,5.44,5.51,8.45,1.87-3,3.75-5.9,5.51-8.45C206.8,10.25,217,1.4,226,1.4v8.71h0c-4.63,0-12.52,5.85-17.42,12.65-2.35,3.46-4.92,7.71-7.52,11.83,2,3.14,3.93,6.22,5.75,8.85a80.86,80.86,0,0,0,10.07,11.84c3.67,3.54,7.21,6.12,9.12,6.12V70c-4.36,0-8.85-2.58-15.11-8.57a88.73,88.73,0,0,1-11.15-13.06c-1.21-1.71-2.47-3.6-3.74-5.58-1.27,2-2.54,3.87-3.75,5.58A88.13,88.13,0,0,1,181.09,61.4c-6.26,6-10.75,8.57-15.1,8.57V61.4c1.9,0,5.44-2.58,9.11-6.12a80.25,80.25,0,0,0,10.07-11.84c1.82-2.63,3.79-5.71,5.75-8.85-2.6-4.12-5.17-8.37-7.52-11.83C178.5,16,170.61,10.11,166,10.11Z"/><g class="cls-4"><g class="cls-5"><rect class="cls-6" x="237.32" y="-0.38" width="142.88" height="72.15"/></g></g></g></svg>