<svg xmlns="http://www.w3.org/2000/svg" viewBox="0 0 144 144"><defs><style>.cls-1{fill:none;stroke:#595959;}</style></defs><title>snacks-icon</title><g id="Layer_2" data-name="Layer 2"><path class="cls-1" d="M58.21,103.15H12a1.5,1.5,0,0,1-1.49-1.39L7,54.42a1.49,1.49,0,0,1,.4-1.13,1.53,1.53,0,0,1,1.09-.48l55.19-.28h0a1.5,1.5,0,0,1,1.49,1.67l-5.52,47.62A1.49,1.49,0,0,1,58.21,103.15Zm-44.84-3H56.88L62,55.53"/><path class="cls-1" d="M35,89.73c-8.06,0-14.62-5.38-14.62-12s6.56-12,14.62-12,14.62,5.38,14.62,12S43.07,89.73,35,89.73Z"/><path class="cls-1" d="M7,54.42A5.18,5.18,0,0,1,4.2,51.81a8.52,8.52,0,0,1-.44-5.08A8.14,8.14,0,0,1,8.92,41a5.6,5.6,0,0,1-.19-1.08,10,10,0,0,1,.33-2.78,8.73,8.73,0,0,1,6.23-5.93,8.47,8.47,0,0,1,5.33.17A5.83,5.83,0,0,1,23.18,28a5.68,5.68,0,0,1,5.11-.27,7.43,7.43,0,0,1,8.59-3,8.68,8.68,0,0,1,4.6,3.62,8.18,8.18,0,0,1,6.32-1.69,7.3,7.3,0,0,1,5.48,4.89,8.46,8.46,0,0,1,6.23,1.49c1.65,1.14,3.41,3.28,3.12,7.2a7.57,7.57,0,0,1,6.76,6,8.53,8.53,0,0,1-1.21,6.59"/><path class="cls-1" d="M32.23,47.21a1.49,1.49,0,0,1-1.86-1c-.93-3.1-.32-7,3.13-8.59a8.31,8.31,0,0,1,6.24,0,7.73,7.73,0,0,1,12.68-1.93A5.79,5.79,0,0,1,54,39.24a7.63,7.63,0,0,1,5.87,2.22c2.26,2.59,2,7-.54,9.76"/><path class="cls-1" d="M19.41,54.4l1,14"/><path class="cls-1" d="M21.85,89.8l.74,8.4"/><path class="cls-1" d="M31.79,93.64l.53,4.18"/><path class="cls-1" d="M30.24,55l.49,7.69"/><path class="cls-1" d="M54.84,55,53.51,69.38"/><path class="cls-1" d="M48.4,89.8l-.75,8.58"/><path class="cls-1" d="M37.71,97.83l.65-4.44"/><path class="cls-1" d="M39.41,62.18,39.73,55"/><path class="cls-1" d="M17,52.75a5.17,5.17,0,0,1-4-1.63,4.53,4.53,0,0,1-1.11-3.5,4.48,4.48,0,0,1,2.34-3.85,6.31,6.31,0,0,1,0-3.34,6.89,6.89,0,0,1,3.53-4.32,8.37,8.37,0,0,1,7.46-.29,6.8,6.8,0,0,1,1.24-1.6,6,6,0,0,1,4.18-1.3,6.49,6.49,0,0,1,4.05,1.63"/><rect class="cls-1" x="72.65" y="36.41" width="55.55" height="6.61"/><path class="cls-1" d="M103.25,104.31H72.65V97.69h30.47"/><path class="cls-1" d="M73.92,43s10.6,20,.61,53.83"/><path class="cls-1" d="M126.2,43.67s-7.47,10.62-2.53,38.25"/><path class="cls-1" d="M113.57,90.62S125,88.76,125,97s-7,9.24-7,9.24-10.44.31-11.22-3.58-2.25-3.8,1.42-6.68,2.08-1.22,2.34-2.91"/><path class="cls-1" d="M119.79,88s6.23-8.82,12.59,0c0,0,7,1.42,4.72,6.87S134.24,98,134.24,98"/><path class="cls-1" d="M125,97s3.42,0,6.43,4c0,0,9,1.35,4.84,7.94s-9.57,3-12.18,2.82-5.19-.88-6-5.5"/><ellipse class="cls-1" cx="101.12" cy="68.31" rx="17.64" ry="13.61"/></g></svg>