<svg xmlns="http://www.w3.org/2000/svg" viewBox="0 0 144 144"><defs><style>.cls-1{fill:none;stroke:#54565B;stroke-miterlimit:10;}</style></defs><title>training-icon</title><g id="Layer_2" data-name="Layer 2"><polyline class="cls-1" points="49.81 72.21 127.64 72.21 127.64 25.29 49.81 25.29"/><path class="cls-1" d="M28.19,29.62a13,13,0,1,1,13-13A13,13,0,0,1,28.19,29.62Z"/><path class="cls-1" d="M15.55,64.21V85.83H2.25V51.23a17.32,17.32,0,0,1,17.3-17.29H80.08V47.23H45.49V81.5h90.8V16.64H45.49"/><path class="cls-1" d="M126.4,119.69l14.21,8.12v5.58c0,4.69-3,8.65-6.48,8.65H8.74c-3.52,0-6.49-4-6.49-8.65v-5.58l14.21-8.12"/><polyline class="cls-1" points="81.08 119.58 95.15 126.61 107.26 119.69"/><polyline class="cls-1" points="35.6 119.69 47.72 126.61 61.78 119.58"/><path class="cls-1" d="M26,124.74c-7.39,0-13-7-13-16.21,0-6.55,1.47-14.06,13-14.06S39,102,39,108.53C39,117.77,33.43,124.74,26,124.74Z"/><path class="cls-1" d="M71.43,124.74c-7.39,0-13-7-13-16.21,0-6.55,1.48-14.06,13-14.06s13,7.51,13,14.06C84.4,117.77,78.83,124.74,71.43,124.74Z"/><path class="cls-1" d="M116.83,124.74c-7.39,0-13-7-13-16.21,0-6.55,1.48-14.06,13-14.06s13,7.51,13,14.06C129.8,117.77,124.23,124.74,116.83,124.74Z"/><path class="cls-1" d="M24.5,57.7l3.66,3s0,0,0,0,0,0,0,0,.07,0,.11,0h0a.11.11,0,0,0,.1,0s0,0,0,0a0,0,0,0,0,0,0l3.37-3a.21.21,0,0,0,.07-.25L29.88,43c.65-1.91.75-3,.32-3.23,0,0,0,0,0,0a6.71,6.71,0,0,0-1.73-.25H28.3a6,6,0,0,0-1.83.25.55.55,0,0,0-.32.32c-.29.72.43,2.44.68,3L24.42,57.41A.26.26,0,0,0,24.5,57.7Z"/></g></svg>