<svg id="webinar-icon" data-name="Webinar" xmlns="http://www.w3.org/2000/svg" viewBox="0 0 144 85.91"><defs><style>.cls-1{fill:none;stroke:#595959;stroke-miterlimit:10;}</style></defs><title>webinar</title><polyline class="cls-1" points="59.14 62.76 91.95 62.76 91.95 42.98 59.14 42.98"/><path class="cls-1" d="M50,44.81a5.47,5.47,0,1,1,5.47-5.47A5.48,5.48,0,0,1,50,44.81Z"/><path class="cls-1" d="M44.7,59.39V68.5H39.1V53.92a7.3,7.3,0,0,1,7.29-7.29H71.9v5.6H57.32V66.68H95.59V39.34H57.32"/><g id="Outline_Icons" data-name="Outline Icons"><path class="cls-1" d="M116.3,71.32a7.91,7.91,0,0,1-7.92,7.91H33.16a7.92,7.92,0,0,1-7.92-7.91V15.89A7.93,7.93,0,0,1,33.16,8h75.22a7.92,7.92,0,0,1,7.92,7.92Z"/><line class="cls-1" x1="25.24" y1="27.77" x2="116.3" y2="27.77"/><circle class="cls-1" cx="39.1" cy="17.87" r="1.98"/><circle class="cls-1" cx="50.97" cy="17.87" r="1.98"/><circle class="cls-1" cx="62.85" cy="17.87" r="1.98"/></g></svg>